<svg width="17" height="16" viewBox="0 0 17 16" fill="none" xmlns="http://www.w3.org/2000/svg">
<path d="M8.15095 0C3.64959 0 0 3.63809 0 8.12526C0 11.9326 2.63004 15.1184 6.1757 16C6.13766 15.8903 6.11321 15.763 6.11321 15.6052V14.2165C5.78242 14.2165 5.22815 14.2165 5.08891 14.2165C4.53125 14.2165 4.0354 13.9775 3.79494 13.5333C3.528 13.0397 3.48181 12.2847 2.82023 11.8229C2.62393 11.6692 2.77336 11.4939 2.99955 11.5176C3.41728 11.6354 3.7637 11.9211 4.08974 12.345C4.41442 12.7695 4.56725 12.8657 5.17381 12.8657C5.46793 12.8657 5.90808 12.8488 6.32242 12.7837C6.54521 12.2197 6.93034 11.7004 7.40106 11.4553C4.68679 11.177 3.39147 9.83089 3.39147 8.00339C3.39147 7.21659 3.7277 6.45552 4.29894 5.8143C4.11147 5.17782 3.87577 3.87981 4.37094 3.38553C5.59223 3.38553 6.33057 4.17503 6.50785 4.38832C7.11646 4.18045 7.78483 4.06263 8.48717 4.06263C9.19087 4.06263 9.86197 4.18045 10.4719 4.38967C10.6472 4.17774 11.3862 3.38553 12.6102 3.38553C13.1074 3.88049 12.869 5.18392 12.6795 5.81904C13.2473 6.45891 13.5815 7.21794 13.5815 8.00339C13.5815 9.82954 12.2882 11.1749 9.57804 11.4546C10.3239 11.8426 10.8679 12.9327 10.8679 13.754V15.6052C10.8679 15.6757 10.8523 15.7264 10.8442 15.7867C14.0203 14.6769 16.3019 11.6706 16.3019 8.12526C16.3019 3.63809 12.6523 0 8.15095 0Z" fill="#4200FF"/>
</svg>
