<svg width="13" height="16" viewBox="0 0 13 16" fill="none" xmlns="http://www.w3.org/2000/svg">
<path d="M8.52044 0.000323443C8.38782 0.0045339 8.26207 0.0602646 8.16988 0.155684L3.63455 4.69301L1.0233 7.30226C0.970914 7.3534 0.930155 7.41522 0.903791 7.48352C-0.328789 8.88104 -0.311758 11.0124 1.0233 12.3475L3.63455 14.9587C5.02289 16.3471 7.29144 16.3471 8.67978 14.9587L10.9743 12.6642C11.0217 12.6167 11.0592 12.5604 11.0848 12.4984C11.1104 12.4364 11.1235 12.37 11.1234 12.303C11.1233 12.2359 11.11 12.1695 11.0843 12.1076C11.0585 12.0457 11.0209 11.9895 10.9734 11.9421C10.9259 11.8948 10.8696 11.8573 10.8076 11.8317C10.7456 11.8061 10.6792 11.793 10.6121 11.7931C10.5451 11.7932 10.4787 11.8065 10.4168 11.8322C10.3549 11.858 10.2987 11.8957 10.2513 11.9432L7.95676 14.2377C6.95876 15.2357 5.35358 15.2357 4.35558 14.2377L1.74433 11.6265C0.746334 10.6285 0.746334 9.02129 1.74433 8.0233L4.35558 5.41404C5.35358 4.41604 6.95876 4.41604 7.95676 5.41404L10.2513 7.70859C10.3469 7.80447 10.4767 7.85844 10.6121 7.85863C10.7475 7.85881 10.8775 7.8052 10.9733 7.70959C11.0692 7.61397 11.1232 7.48419 11.1234 7.34878C11.1236 7.21337 11.0699 7.08344 10.9743 6.98756L8.67978 4.69301C7.97324 3.98646 7.03877 3.64866 6.10837 3.66125L8.8929 0.876716C8.96709 0.805043 9.01781 0.712555 9.03834 0.611463C9.05887 0.510371 9.04827 0.405428 9.00792 0.310489C8.96757 0.215551 8.89938 0.135082 8.81234 0.0797055C8.72531 0.0243294 8.62353 -0.0033494 8.52044 0.000323443ZM5.33953 9.31598C5.27196 9.31502 5.20488 9.32751 5.14218 9.3527C5.07948 9.3779 5.02241 9.41531 4.9743 9.46275C4.92618 9.51019 4.88797 9.56673 4.86189 9.62906C4.83581 9.6914 4.82238 9.7583 4.82238 9.82588C4.82238 9.89345 4.83581 9.96035 4.86189 10.0227C4.88797 10.085 4.92618 10.1416 4.9743 10.189C5.02241 10.2364 5.07948 10.2739 5.14218 10.299C5.20488 10.3242 5.27196 10.3367 5.33953 10.3358H12.3766C12.4441 10.3367 12.5112 10.3242 12.5739 10.299C12.6366 10.2739 12.6937 10.2364 12.7418 10.189C12.7899 10.1416 12.8281 10.085 12.8542 10.0227C12.8803 9.96035 12.8937 9.89345 12.8937 9.82588C12.8937 9.7583 12.8803 9.6914 12.8542 9.62906C12.8281 9.56673 12.7899 9.51019 12.7418 9.46275C12.6937 9.41531 12.6366 9.3779 12.5739 9.3527C12.5112 9.32751 12.4441 9.31502 12.3766 9.31598H5.33953Z" fill="#4200FF"/>
</svg>
