<svg width="96" height="96" viewBox="0 0 96 96" fill="none" xmlns="http://www.w3.org/2000/svg">
<g clip-path="url(#clip0_209_41)">
<path d="M92 48L82.24 36.84L83.6 22.08L69.16 18.8L61.6 6L48 11.84L34.4 6L26.84 18.76L12.4 22L13.76 36.8L4 48L13.76 59.16L12.4 73.96L26.84 77.24L34.4 90L48 84.12L61.6 89.96L69.16 77.2L83.6 73.92L82.24 59.16L92 48ZM40.36 66.88L25.16 51.64L31.08 45.72L40.36 55.04L63.76 31.56L69.68 37.48L40.36 66.88Z" fill="white"/>
</g>
<defs>
<clipPath id="clip0_209_41">
<rect width="96" height="96" fill="white"/>
</clipPath>
</defs>
</svg>
