<svg width="20" height="20" viewBox="0 0 20 20" fill="none" xmlns="http://www.w3.org/2000/svg">
<path d="M2 20C1.45 20 0.979333 19.8043 0.588 19.413C0.196 19.021 0 18.55 0 18V2C0 1.45 0.196 0.979 0.588 0.587C0.979333 0.195667 1.45 0 2 0H9.175C9.44167 0 9.696 0.0500001 9.938 0.15C10.1793 0.25 10.3917 0.391667 10.575 0.575L15.425 5.425C15.6083 5.60833 15.75 5.82067 15.85 6.062C15.95 6.304 16 6.55833 16 6.825V10H14V7H10C9.71667 7 9.47933 6.904 9.288 6.712C9.096 6.52067 9 6.28333 9 6V2H2V18H8V20H2ZM14.3 12.525L15.375 13.6L11.5 17.45V18.5H12.55L16.425 14.65L17.475 15.7L13.475 19.7C13.375 19.8 13.2623 19.875 13.137 19.925C13.0123 19.975 12.8833 20 12.75 20H10.5C10.3667 20 10.25 19.95 10.15 19.85C10.05 19.75 10 19.6333 10 19.5V17.25C10 17.1167 10.025 16.9877 10.075 16.863C10.125 16.7377 10.2 16.625 10.3 16.525L14.3 12.525ZM17.475 15.7L14.3 12.525L15.75 11.075C15.9333 10.8917 16.1667 10.8 16.45 10.8C16.7333 10.8 16.9667 10.8917 17.15 11.075L18.925 12.85C19.1083 13.0333 19.2 13.2667 19.2 13.55C19.2 13.8333 19.1083 14.0667 18.925 14.25L17.475 15.7Z" fill="#1E1E1E"/>
</svg>
