<svg width="14" height="8" viewBox="0 0 14 8" fill="none" xmlns="http://www.w3.org/2000/svg">
<path d="M13.5617 3.5009C13.583 3.51682 13.6034 3.53391 13.6227 3.55211C13.6981 3.62324 13.7571 3.70995 13.7955 3.8062C13.8339 3.90244 13.8509 4.0059 13.8453 4.10939C13.8397 4.21287 13.8116 4.31388 13.7629 4.40539C13.7143 4.4969 13.6463 4.57671 13.5636 4.63926L10.6025 7.60038C10.5367 7.66813 10.458 7.72212 10.3711 7.75921C10.2842 7.79629 10.1907 7.81574 10.0963 7.8164C10.0018 7.81707 9.90808 7.79895 9.82065 7.7631C9.73322 7.72725 9.65379 7.67438 9.58698 7.60756C9.52016 7.54074 9.46729 7.46131 9.43143 7.37388C9.39558 7.28645 9.37746 7.19277 9.37813 7.09828C9.3788 7.00379 9.39824 6.91037 9.43533 6.82346C9.47241 6.73655 9.5264 6.65787 9.59415 6.592L11.4021 4.78402L1.02297 4.78402C0.92812 4.78595 0.83384 4.76894 0.745651 4.73397C0.657461 4.69901 0.577133 4.64681 0.509373 4.58041C0.441613 4.51402 0.387782 4.43477 0.351033 4.34731C0.314283 4.25985 0.295353 4.16593 0.295353 4.07107C0.295354 3.9762 0.314283 3.88229 0.351033 3.79483C0.387782 3.70737 0.441614 3.62812 0.509374 3.56172C0.577134 3.49533 0.657461 3.44312 0.745651 3.40816C0.833841 3.3732 0.928121 3.35618 1.02297 3.35811L11.4021 3.35811L9.59416 1.55013C9.5264 1.48426 9.47241 1.40559 9.43533 1.31867C9.39824 1.23176 9.3788 1.13834 9.37813 1.04385C9.37746 0.949361 9.39558 0.855678 9.43143 0.76825C9.46729 0.680821 9.52016 0.60139 9.58698 0.534573C9.65379 0.467755 9.73322 0.414884 9.82065 0.379031C9.90808 0.343179 10.0018 0.32506 10.0963 0.325728C10.1907 0.326396 10.2842 0.345838 10.3711 0.382924C10.458 0.420009 10.5367 0.473998 10.6025 0.541754L13.5617 3.5009Z" fill="#4200FF"/>
</svg>
