<svg width="16" height="16" viewBox="0 0 16 16" fill="none" xmlns="http://www.w3.org/2000/svg">
<path d="M15.284 0.000289712C15.2581 0.00110859 15.2322 0.00337563 15.2066 0.00708018H11.1255C11.0334 0.00577708 10.9419 0.0228 10.8564 0.0571596C10.7709 0.0915192 10.6931 0.14253 10.6274 0.207228C10.5618 0.271926 10.5097 0.349021 10.4741 0.434031C10.4386 0.519042 10.4203 0.610274 10.4203 0.702425C10.4203 0.794575 10.4386 0.885807 10.4741 0.970818C10.5097 1.05583 10.5618 1.13292 10.6274 1.19762C10.6931 1.26232 10.7709 1.31333 10.8564 1.34769C10.9419 1.38205 11.0334 1.39907 11.1255 1.39777H13.619L6.46181 8.55493C6.39508 8.619 6.3418 8.69574 6.30509 8.78067C6.26839 8.86559 6.249 8.95698 6.24806 9.04949C6.24712 9.142 6.26464 9.23377 6.29961 9.31942C6.33458 9.40507 6.38629 9.48288 6.4517 9.5483C6.51712 9.61372 6.59493 9.66542 6.68058 9.70039C6.76624 9.73536 6.858 9.75289 6.95051 9.75194C7.04302 9.751 7.13441 9.73161 7.21934 9.69491C7.30426 9.6582 7.381 9.60492 7.44507 9.53819L14.6022 2.38103V4.87449C14.6009 4.96663 14.618 5.05811 14.6523 5.14362C14.6867 5.22912 14.7377 5.30695 14.8024 5.37257C14.8671 5.43819 14.9442 5.49029 15.0292 5.52586C15.1142 5.56142 15.2054 5.57974 15.2976 5.57974C15.3897 5.57974 15.481 5.56142 15.566 5.52586C15.651 5.49029 15.7281 5.43819 15.7928 5.37257C15.8575 5.30695 15.9085 5.22912 15.9428 5.14362C15.9772 5.05811 15.9942 4.96663 15.9929 4.87449V0.790701C16.0068 0.690589 15.9986 0.588661 15.9691 0.492016C15.9395 0.39537 15.8892 0.306329 15.8218 0.231092C15.7543 0.155855 15.6712 0.0962308 15.5783 0.0563708C15.4855 0.0165107 15.385 -0.00262713 15.284 0.000289712ZM1.39069 2.78846C0.630634 2.78846 0 3.41909 0 4.17915V14.6093C0 15.3694 0.630634 16 1.39069 16H11.8209C12.5809 16 13.2115 15.3694 13.2115 14.6093V7.65587V5.86318L11.8209 7.25387V9.04656V14.6093H1.39069V4.17915H6.95344H8.34413H8.74613L10.1368 2.78846H8.34413H6.95344H1.39069Z" fill="#4200FF"/>
</svg>
