<svg xmlns="http://www.w3.org/2000/svg" version="1.1" xmlns:xlink="http://www.w3.org/1999/xlink" xmlns:svgjs="http://svgjs.dev/svgjs" width="2000" height="2250" viewBox="0 0 2000 2250"><g transform="matrix(1,0,0,1,0.0022017081398644223,0)"><svg viewBox="0 0 320 360" data-background-color="#ffffff" preserveAspectRatio="xMidYMid meet" height="2250" width="2000" xmlns="http://www.w3.org/2000/svg" xmlns:xlink="http://www.w3.org/1999/xlink"><g id="tight-bounds" transform="matrix(1,0,0,1,0.00010353528136874957,0)"><svg viewBox="0 0 320 360" height="360" width="320"><g><svg></svg></g><g><svg viewBox="0 0 320 360" height="360" width="320"><g><path d="M307.925 179.999l6.575-11.387c11.322-19.607 4.604-44.679-15.003-56.001l-11.387-6.575v-13.151c0-22.639-18.354-40.994-40.994-40.994h-13.151l-6.575-11.387c-11.322-19.607-36.393-26.325-56.001-15.003l-11.39 6.572-11.387-6.576c-19.607-11.318-44.679-4.6-56.001 15.007l-6.575 11.387h-13.151c-22.639 0-40.994 18.354-40.994 40.994v13.151l-11.387 6.575c-19.607 11.322-26.325 36.393-15.003 56.001l6.572 11.387-6.576 11.387c-11.318 19.607-4.6 44.679 15.007 56l11.387 6.576v13.15c0 22.639 18.354 40.994 40.994 40.994h13.151l6.575 11.387c11.322 19.607 36.393 26.325 56.001 15.003l11.387-6.571 11.387 6.575c19.607 11.322 44.679 4.604 56-15.003l6.576-11.387h13.15c22.639 0 40.994-18.354 40.994-40.994v-13.151l11.387-6.575c19.607-11.322 26.325-36.393 15.003-56.001zM297.702 115.716c8.655 4.996 14.842 13.062 17.428 22.713 2.586 9.65 1.261 19.734-3.735 28.384l-5.538 9.596-17.747-30.74v-35.494zM251.155 271.155l-57.791 33.365h-66.731l-57.791-33.365-33.365-57.791v-66.731l33.365-57.791 57.791-33.365h66.731l57.791 33.365 33.365 57.791v66.731zM284.517 220.539v31.351l-27.151 15.676zM247.566 277.366l-15.676 27.151h-31.351zM187.15 308.106l-27.151 15.676-27.151-15.676zM119.459 304.517h-31.352l-15.676-27.151zM62.632 267.566l-27.151-15.676v-31.351zM31.891 207.15l-15.675-27.151 15.675-27.151zM35.481 139.459v-31.352l27.151-15.676zM72.431 82.632l15.676-27.151h31.352zM132.848 51.891l27.151-15.675 27.151 15.675zM200.539 55.481h31.351l15.676 27.151zM257.366 92.431l27.151 15.676v31.352zM288.106 152.848l15.676 27.151-15.676 27.151zM247.112 55.481c9.992 0 19.384 3.889 26.452 10.956 7.063 7.063 10.956 16.46 10.957 26.452v11.079l-30.741-17.747-17.747-30.74zM173.18 28.606c8.655-4.996 18.735-6.322 28.385-3.735 9.65 2.586 17.716 8.777 22.712 17.428l5.538 9.596h-35.494l-30.741-17.747zM95.716 42.295c4.996-8.655 13.062-14.842 22.713-17.428 9.65-2.586 19.734-1.261 28.384 3.736l9.596 5.537-30.74 17.747h-35.494zM35.481 92.885c0-9.992 3.889-19.384 10.956-26.452 7.063-7.063 16.46-10.956 26.452-10.956h11.079l-17.747 30.74-30.74 17.747zM8.606 166.817c-4.996-8.655-6.322-18.735-3.735-28.385 2.586-9.65 8.777-17.716 17.428-22.712l9.596-5.538v35.495l-17.747 30.74zM22.295 244.281c-8.655-4.996-14.842-13.062-17.428-22.712-2.586-9.65-1.261-19.734 3.736-28.385l5.537-9.596 17.747 30.74v35.495zM72.885 304.517c-9.992 0-19.384-3.889-26.452-10.957-7.063-7.063-10.956-16.46-10.956-26.451v-11.08l30.74 17.747 17.747 30.741zM146.817 331.391c-8.655 4.996-18.735 6.322-28.385 3.735-9.65-2.586-17.716-8.777-22.712-17.428l-5.538-9.596h35.495l30.74 17.747zM224.281 317.702c-4.996 8.655-13.062 14.842-22.712 17.428-9.65 2.586-19.734 1.261-28.385-3.735l-9.596-5.538 30.74-17.747h35.495zM284.517 267.112c0 9.992-3.889 19.384-10.957 26.452-7.063 7.063-16.46 10.956-26.451 10.957h-11.08l17.747-30.741 30.741-17.747zM315.13 221.565c-2.586 9.65-8.777 17.716-17.428 22.712l-9.596 5.538v-35.494l17.747-30.741 5.538 9.596c4.996 8.658 6.326 18.739 3.739 28.389z" fill="#6725f4" fill-rule="nonzero" stroke="none" stroke-width="1" stroke-linecap="butt" stroke-linejoin="miter" stroke-miterlimit="10" stroke-dasharray="" stroke-dashoffset="0" font-family="none" font-weight="none" font-size="none" text-anchor="none" style="mix-blend-mode: normal" data-fill-palette-color="tertiary"></path></g><g transform="matrix(1,0,0,1,64.00000000000001,144.1873459326212)"><svg viewBox="0 0 191.99999999999997 71.6253081347576" height="71.6253081347576" width="191.99999999999997"><g><svg viewBox="0 0 191.99999999999997 71.6253081347576" height="71.6253081347576" width="191.99999999999997"><g><svg viewBox="0 0 191.99999999999997 71.6253081347576" height="71.6253081347576" width="191.99999999999997"><g><svg viewBox="0 0 191.99999999999997 71.6253081347576" height="71.6253081347576" width="191.99999999999997"><g id="textblocktransform"><svg viewBox="0 0 191.99999999999997 71.6253081347576" height="71.6253081347576" width="191.99999999999997" id="textblock"><g><svg viewBox="0 0 191.99999999999997 71.6253081347576" height="71.6253081347576" width="191.99999999999997"><g transform="matrix(1,0,0,1,0,0)"><svg width="191.99999999999997" viewBox="1.23 -33.48 91.25999999999999 34.059999999999995" height="71.6253081347576" data-palette-color="#6725f4"><path d="M5.43 0L1.23 0 11.23-31.95 17.78-31.95 27.8 0 23.6 0 14.83-29.15 14.2-29.15 5.43 0ZM21.78-9.43L7.23-9.43 7.23-12.88 21.78-12.88 21.78-9.43ZM36.45 0L32.4 0 32.4-24.4 36.45-24.4 36.45 0ZM34.42-28.4L34.42-28.4Q33.17-28.4 32.56-29.06 31.95-29.73 31.95-30.88L31.95-30.88 31.95-31Q31.95-32.18 32.56-32.83 33.17-33.48 34.42-33.48L34.42-33.48Q35.67-33.48 36.3-32.83 36.92-32.18 36.92-31L36.92-31 36.92-30.88Q36.92-29.7 36.3-29.05 35.67-28.4 34.42-28.4ZM54.3 0.58L54.3 0.58Q48.37 0.58 45.41-2.75 42.45-6.08 42.45-12.2L42.45-12.2 42.45-19.78Q42.45-25.9 45.4-29.21 48.35-32.52 54.25-32.52L54.25-32.52Q56.15-32.52 57.71-32.18 59.27-31.83 60.5-31.28 61.72-30.73 62.57-30.13L62.57-30.13 62.92-26.28Q61.45-27.33 59.46-28.11 57.47-28.9 54.8-28.9L54.8-28.9Q50.77-28.9 48.72-26.51 46.67-24.13 46.67-19.73L46.67-19.73 46.67-12.35Q46.67-7.98 48.75-5.56 50.82-3.15 54.95-3.15L54.95-3.15Q57.6-3.15 59.63-3.93 61.67-4.7 63.17-5.83L63.17-5.83 62.82-1.88Q61.97-1.28 60.72-0.7 59.47-0.13 57.86 0.23 56.25 0.58 54.3 0.58ZM82.79 0L76.17 0 66.44-31.95 70.79-31.95 79.17-3.15 79.77-3.15 88.17-31.95 92.49-31.95 82.79 0Z" opacity="1" transform="matrix(1,0,0,1,0,0)" fill="#6725f4" class="wordmark-text-0" data-fill-palette-color="primary" id="text-0"></path></svg></g></svg></g></svg></g></svg></g><g></g></svg></g></svg></g></svg></g></svg></g><defs></defs></svg><rect width="320" height="360" fill="none" stroke="none" visibility="hidden"></rect></g></svg></g></svg>