<svg xmlns="http://www.w3.org/2000/svg" version="1.1" xmlns:xlink="http://www.w3.org/1999/xlink" xmlns:svgjs="http://svgjs.dev/svgjs" width="2000" height="2250" viewBox="0 0 2000 2250"><g transform="matrix(1,0,0,1,0.0022017081398644223,0)"><svg viewBox="0 0 320 360" data-background-color="#ffffff" preserveAspectRatio="xMidYMid meet" height="2250" width="2000" xmlns="http://www.w3.org/2000/svg" xmlns:xlink="http://www.w3.org/1999/xlink"><g id="tight-bounds" transform="matrix(1,0,0,1,0.00010353528136874957,0)"><svg viewBox="0 0 320 360" height="360" width="320"><g><svg></svg></g><g><svg viewBox="0 0 320 360" height="360" width="320"><g><path d="M307.925 179.999l6.575-11.387c11.322-19.607 4.604-44.679-15.003-56.001l-11.387-6.575v-13.151c0-22.639-18.354-40.994-40.994-40.994h-13.151l-6.575-11.387c-11.322-19.607-36.393-26.325-56.001-15.003l-11.39 6.572-11.387-6.576c-19.607-11.318-44.679-4.6-56.001 15.007l-6.575 11.387h-13.151c-22.639 0-40.994 18.354-40.994 40.994v13.151l-11.387 6.575c-19.607 11.322-26.325 36.393-15.003 56.001l6.572 11.387-6.576 11.387c-11.318 19.607-4.6 44.679 15.007 56l11.387 6.576v13.15c0 22.639 18.354 40.994 40.994 40.994h13.151l6.575 11.387c11.322 19.607 36.393 26.325 56.001 15.003l11.387-6.571 11.387 6.575c19.607 11.322 44.679 4.604 56-15.003l6.576-11.387h13.15c22.639 0 40.994-18.354 40.994-40.994v-13.151l11.387-6.575c19.607-11.322 26.325-36.393 15.003-56.001zM297.702 115.716c8.655 4.996 14.842 13.062 17.428 22.713 2.586 9.65 1.261 19.734-3.735 28.384l-5.538 9.596-17.747-30.74v-35.494zM251.155 271.155l-57.791 33.365h-66.731l-57.791-33.365-33.365-57.791v-66.731l33.365-57.791 57.791-33.365h66.731l57.791 33.365 33.365 57.791v66.731zM284.517 220.539v31.351l-27.151 15.676zM247.566 277.366l-15.676 27.151h-31.351zM187.15 308.106l-27.151 15.676-27.151-15.676zM119.459 304.517h-31.352l-15.676-27.151zM62.632 267.566l-27.151-15.676v-31.351zM31.891 207.15l-15.675-27.151 15.675-27.151zM35.481 139.459v-31.352l27.151-15.676zM72.431 82.632l15.676-27.151h31.352zM132.848 51.891l27.151-15.675 27.151 15.675zM200.539 55.481h31.351l15.676 27.151zM257.366 92.431l27.151 15.676v31.352zM288.106 152.848l15.676 27.151-15.676 27.151zM247.112 55.481c9.992 0 19.384 3.889 26.452 10.956 7.063 7.063 10.956 16.46 10.957 26.452v11.079l-30.741-17.747-17.747-30.74zM173.18 28.606c8.655-4.996 18.735-6.322 28.385-3.735 9.65 2.586 17.716 8.777 22.712 17.428l5.538 9.596h-35.494l-30.741-17.747zM95.716 42.295c4.996-8.655 13.062-14.842 22.713-17.428 9.65-2.586 19.734-1.261 28.384 3.736l9.596 5.537-30.74 17.747h-35.494zM35.481 92.885c0-9.992 3.889-19.384 10.956-26.452 7.063-7.063 16.46-10.956 26.452-10.956h11.079l-17.747 30.74-30.74 17.747zM8.606 166.817c-4.996-8.655-6.322-18.735-3.735-28.385 2.586-9.65 8.777-17.716 17.428-22.712l9.596-5.538v35.495l-17.747 30.74zM22.295 244.281c-8.655-4.996-14.842-13.062-17.428-22.712-2.586-9.65-1.261-19.734 3.736-28.385l5.537-9.596 17.747 30.74v35.495zM72.885 304.517c-9.992 0-19.384-3.889-26.452-10.957-7.063-7.063-10.956-16.46-10.956-26.451v-11.08l30.74 17.747 17.747 30.741zM146.817 331.391c-8.655 4.996-18.735 6.322-28.385 3.735-9.65-2.586-17.716-8.777-22.712-17.428l-5.538-9.596h35.495l30.74 17.747zM224.281 317.702c-4.996 8.655-13.062 14.842-22.712 17.428-9.65 2.586-19.734 1.261-28.385-3.735l-9.596-5.538 30.74-17.747h35.495zM284.517 267.112c0 9.992-3.889 19.384-10.957 26.452-7.063 7.063-16.46 10.956-26.451 10.957h-11.08l17.747-30.741 30.741-17.747zM315.13 221.565c-2.586 9.65-8.777 17.716-17.428 22.712l-9.596 5.538v-35.494l17.747-30.741 5.538 9.596c4.996 8.658 6.326 18.739 3.739 28.389z" fill="#6725f4" fill-rule="nonzero" stroke="none" stroke-width="1" stroke-linecap="butt" stroke-linejoin="miter" stroke-miterlimit="10" stroke-dasharray="" stroke-dashoffset="0" font-family="none" font-weight="none" font-size="none" text-anchor="none" style="mix-blend-mode: normal" data-fill-palette-color="tertiary"></path></g><g transform="matrix(1,0,0,1,64,147.55070202808113)"><svg viewBox="0 0 192 64.89859594383775" height="64.89859594383775" width="192"><g><svg viewBox="0 0 192 64.89859594383775" height="64.89859594383775" width="192"><g><svg viewBox="0 0 192 64.89859594383775" height="64.89859594383775" width="192"><g><svg viewBox="0 0 192 64.89859594383775" height="64.89859594383775" width="192"><g id="textblocktransform"><svg viewBox="0 0 192 64.89859594383775" height="64.89859594383775" width="192" id="textblock"><g><svg viewBox="0 0 192 64.89859594383775" height="64.89859594383775" width="192"><g transform="matrix(1,0,0,1,0,0)"><svg width="192" viewBox="3.78 -31.95 96.14 32.5" height="64.89859594383775" data-palette-color="#6725f4"><path d="M26.68 0L22.4 0 21.5-6.55Q21.25-8.4 20.65-9.76 20.05-11.13 18.81-11.9 17.57-12.68 15.3-12.68L15.3-12.68 6.63-12.7 6.63-15.98 15.9-16Q19.18-16 20.58-17.61 21.98-19.23 21.98-22L21.98-22 21.98-22.75Q21.98-25.5 20.55-27.01 19.13-28.53 15.8-28.53L15.8-28.53 6.5-28.53 6.5-31.95 16.35-31.95Q21.5-31.95 23.84-29.69 26.18-27.43 26.18-23.45L26.18-23.45 26.18-22.6Q26.18-19.48 24.7-17.49 23.23-15.5 19.8-15.08L19.8-15.08 19.8-14.58 18.03-15.2Q20.8-15 22.31-13.99 23.83-12.98 24.53-11.23 25.23-9.47 25.6-7.03L25.6-7.03 26.68 0ZM7.88 0L3.78 0 3.78-31.95 7.85-31.95 7.85-14.88 7.88-13.3 7.88 0ZM42.32 0.55L42.32 0.55Q36.75 0.55 33.92-2.18 31.1-4.9 31.1-9.98L31.1-9.98 31.1-14.33Q31.1-19.48 33.72-22.26 36.35-25.05 41.4-25.05L41.4-25.05Q44.8-25.05 47.07-23.79 49.35-22.53 50.5-20.2 51.65-17.88 51.65-14.65L51.65-14.65 51.65-13.75Q51.65-12.95 51.59-12.15 51.52-11.35 51.42-10.58L51.42-10.58 47.7-10.58Q47.75-11.78 47.76-12.85 47.77-13.93 47.77-14.83L47.77-14.83Q47.77-17.05 47.06-18.59 46.35-20.13 44.94-20.94 43.52-21.75 41.4-21.75L41.4-21.75Q38.25-21.75 36.67-19.93 35.1-18.1 35.1-14.7L35.1-14.7 35.1-12.38 35.12-11.88 35.12-9.55Q35.12-8.03 35.57-6.8 36.02-5.58 36.98-4.69 37.95-3.8 39.44-3.34 40.92-2.88 42.97-2.88L42.97-2.88Q45.35-2.88 47.4-3.5 49.45-4.13 51.25-5.2L51.25-5.2 50.87-1.7Q49.25-0.68 47.1-0.06 44.95 0.55 42.32 0.55ZM50.57-10.58L33.22-10.58 33.22-13.63 50.57-13.63 50.57-10.58ZM59.45 0L55.02 0 63.02-13.28 63.02-12.13 55.17-24.4 59.62-24.4 65.77-14.48 66.12-14.48 72.25-24.4 76.7-24.4 68.84-12.13 68.84-13.28 76.84 0 72.42 0 66.12-10.6 65.77-10.6 59.45 0ZM99.92 0L95.89 0 96.07-5.93 95.92-6.55 95.92-14.33 95.94-15.75Q95.94-18.73 94.43-20.15 92.92-21.58 89.64-21.58L89.64-21.58Q87.02-21.58 84.83-20.83 82.64-20.08 80.94-19.07L80.94-19.07 81.32-22.53Q82.27-23.1 83.58-23.66 84.89-24.23 86.58-24.6 88.27-24.98 90.29-24.98L90.29-24.98Q92.92-24.98 94.76-24.34 96.59-23.7 97.73-22.5 98.87-21.3 99.39-19.6 99.92-17.9 99.92-15.8L99.92-15.8 99.92 0ZM87.49 0.53L87.49 0.53Q83.87 0.53 81.93-1.24 79.99-3 79.99-6.28L79.99-6.28 79.99-7Q79.99-10.38 82.08-12.04 84.17-13.7 88.72-14.35L88.72-14.35 96.44-15.45 96.67-12.5 89.22-11.43Q86.42-11.03 85.22-10.06 84.02-9.1 84.02-7.23L84.02-7.23 84.02-6.83Q84.02-4.9 85.21-3.88 86.39-2.85 88.77-2.85L88.77-2.85Q90.87-2.85 92.37-3.58 93.87-4.3 94.79-5.53 95.72-6.75 96.04-8.25L96.04-8.25 96.67-5.5 95.89-5.5Q95.54-3.9 94.58-2.53 93.62-1.15 91.89-0.31 90.17 0.53 87.49 0.53Z" opacity="1" transform="matrix(1,0,0,1,0,0)" fill="#6725f4" class="wordmark-text-0" data-fill-palette-color="primary" id="text-0"></path></svg></g></svg></g></svg></g></svg></g><g></g></svg></g></svg></g></svg></g></svg></g><defs></defs></svg><rect width="320" height="360" fill="none" stroke="none" visibility="hidden"></rect></g></svg></g></svg>