<svg width="7" height="11" viewBox="0 0 7 11" fill="none" xmlns="http://www.w3.org/2000/svg">
<path d="M0.216996 10.763C0.072332 10.6183 0 10.4471 0 10.2492C0 10.0516 0.072332 9.88055 0.216996 9.73589L4.45565 5.49723L0.20253 1.24411C0.0675098 1.10909 0 0.940316 0 0.737787C0 0.535257 0.072332 0.36166 0.216996 0.216996C0.36166 0.072332 0.532942 0 0.730843 0C0.928358 0 1.09945 0.072332 1.24411 0.216996L6.10483 5.09217C6.16269 5.15004 6.20377 5.21273 6.22808 5.28024C6.252 5.34775 6.26396 5.42008 6.26396 5.49723C6.26396 5.57439 6.252 5.64672 6.22808 5.71423C6.20377 5.78174 6.16269 5.84443 6.10483 5.90229L1.22964 10.7775C1.09462 10.9125 0.928358 10.98 0.730843 10.98C0.532942 10.98 0.36166 10.9077 0.216996 10.763Z" fill="black"/>
</svg>
