<svg width="9" height="7" viewBox="0 0 9 7" fill="none" xmlns="http://www.w3.org/2000/svg">
<path d="M4.2186 6.52152C4.11771 6.52152 4.02009 6.49782 3.92576 6.45042C3.83092 6.40301 3.75197 6.33981 3.68891 6.2608L0.208092 1.89958C0.0693639 1.72576 0 1.50454 0 1.23591C0 0.967286 0.0693639 0.746065 0.208092 0.572248C0.34682 0.398431 0.523384 0.311523 0.737782 0.311523C0.95218 0.311523 1.12874 0.398431 1.26747 0.572248L4.2186 4.26981L7.16973 0.572248C7.30846 0.398431 7.48502 0.311523 7.69942 0.311523C7.91382 0.311523 8.09038 0.398431 8.22911 0.572248C8.36784 0.746065 8.4372 0.967286 8.4372 1.23591C8.4372 1.50454 8.36784 1.72576 8.22911 1.89958L4.74829 6.2608C4.67262 6.35561 4.59064 6.42261 4.50236 6.46179C4.41408 6.50161 4.31949 6.52152 4.2186 6.52152Z" fill="white"/>
</svg>
