<svg width="7" height="14" viewBox="0 0 7 14" fill="none" xmlns="http://www.w3.org/2000/svg">
<path d="M-0.000195747 6.98508C-0.000195741 6.81803 0.024805 6.6564 0.074805 6.5002C0.124805 6.34316 0.191472 6.21244 0.274805 6.10803L4.8748 0.344555C5.05814 0.114851 5.29147 -6.89155e-08 5.57481 -5.33981e-08C5.85814 -3.78807e-08 6.09147 0.114851 6.27481 0.344555C6.45814 0.574259 6.5498 0.86661 6.5498 1.22161C6.5498 1.5766 6.45814 1.86895 6.2748 2.09866L2.3748 6.98508L6.2748 11.8715C6.45814 12.1012 6.5498 12.3936 6.5498 12.7486C6.5498 13.1036 6.45814 13.3959 6.2748 13.6256C6.09147 13.8553 5.85814 13.9702 5.5748 13.9702C5.29147 13.9702 5.05814 13.8553 4.8748 13.6256L0.274805 7.86213C0.174805 7.73684 0.104138 7.60111 0.0628049 7.45493C0.0208049 7.30876 -0.000195753 7.15214 -0.000195747 6.98508Z" fill="white"/>
</svg>
