<svg width="24" height="24" viewBox="0 0 24 24" fill="none" xmlns="http://www.w3.org/2000/svg">
<path d="M12 12.9999C12.9667 12.9999 13.7917 12.6582 14.475 11.9749C15.1583 11.2916 15.5 10.4666 15.5 9.4999C15.5 8.53324 15.1583 7.70824 14.475 7.0249C13.7917 6.34157 12.9667 5.9999 12 5.9999C11.0333 5.9999 10.2083 6.34157 9.525 7.0249C8.84167 7.70824 8.5 8.53324 8.5 9.4999C8.5 10.4666 8.84167 11.2916 9.525 11.9749C10.2083 12.6582 11.0333 12.9999 12 12.9999ZM12 19.8999C12.9833 19.5832 13.8542 19.0874 14.6125 18.4124C15.3708 17.7374 16.0333 16.9749 16.6 16.1249C15.8833 15.7582 15.1375 15.4791 14.3625 15.2874C13.5875 15.0957 12.8 14.9999 12 14.9999C11.2 14.9999 10.4125 15.0957 9.6375 15.2874C8.8625 15.4791 8.11667 15.7582 7.4 16.1249C7.96667 16.9749 8.62917 17.7374 9.3875 18.4124C10.1458 19.0874 11.0167 19.5832 12 19.8999ZM12 21.8999C11.8833 21.8999 11.775 21.8916 11.675 21.8749C11.575 21.8582 11.475 21.8332 11.375 21.7999C9.125 21.0499 7.33333 19.6624 6 17.6374C4.66667 15.6124 4 13.4332 4 11.0999V6.3749C4 5.95824 4.12083 5.58324 4.3625 5.2499C4.60417 4.91657 4.91667 4.6749 5.3 4.5249L11.3 2.2749C11.5333 2.19157 11.7667 2.1499 12 2.1499C12.2333 2.1499 12.4667 2.19157 12.7 2.2749L18.7 4.5249C19.0833 4.6749 19.3958 4.91657 19.6375 5.2499C19.8792 5.58324 20 5.95824 20 6.3749V11.0999C20 13.4332 19.3333 15.6124 18 17.6374C16.6667 19.6624 14.875 21.0499 12.625 21.7999C12.525 21.8332 12.425 21.8582 12.325 21.8749C12.225 21.8916 12.1167 21.8999 12 21.8999Z" fill="black"/>
</svg>
