<svg width="25" height="25" viewBox="0 0 25 25" fill="none" xmlns="http://www.w3.org/2000/svg">
<path d="M2.91764 15.3172C3.51764 15.0972 4.13764 14.9872 4.79764 14.9872C6.13764 14.9872 7.30764 15.4072 8.30764 16.2472L5.16764 19.3872C4.10764 18.1872 3.35764 16.8172 2.91764 15.3172ZM16.1376 10.4872C18.1076 11.9572 20.2376 12.3172 22.5176 11.5672C22.5476 11.7772 22.5776 12.1572 22.5776 12.6872C22.5776 13.7172 22.3276 14.8672 21.8576 16.1372C21.3876 17.3972 20.8076 18.4172 20.1276 19.1872L13.7976 12.8772L16.1376 10.4872ZM9.34764 17.3272C10.4076 18.8572 10.6276 20.5272 9.99764 22.3472C8.57764 21.9372 7.30764 21.2972 6.24764 20.4172L9.34764 17.3272ZM12.7676 13.9072L19.0776 20.2372C16.9076 22.1372 14.3576 22.9372 11.4576 22.6272C11.6676 21.9672 11.7776 21.2472 11.7776 20.4672C11.7776 19.8472 11.6376 19.1172 11.3576 18.2872C11.0776 17.4572 10.7476 16.7772 10.3776 16.2472L12.7676 13.9072ZM9.38764 15.1872C8.45764 14.3572 7.37764 13.8372 6.15764 13.5972C4.93764 13.3672 3.76764 13.4372 2.63764 13.8172C2.60764 13.5972 2.57764 13.2172 2.57764 12.6872C2.57764 11.6572 2.82764 10.5072 3.29764 9.23724C3.76764 7.97724 4.34764 6.95724 5.02764 6.18724L11.6876 12.8772L9.38764 15.1872ZM16.1376 8.41724C14.7976 6.76724 14.4876 4.96724 15.2076 3.02724C15.8276 3.18724 16.5376 3.48724 17.3376 3.94724C18.1276 4.39724 18.7776 4.84724 19.2776 5.27724L16.1376 8.41724ZM22.2376 10.0672C21.6376 10.2772 21.0176 10.3872 20.3576 10.3872C19.2676 10.3872 18.2176 10.0672 17.2176 9.40724L20.3076 6.35724C21.1876 7.45724 21.8276 8.68724 22.2376 10.0672ZM12.7676 11.7972L6.07764 5.13724C8.24764 3.23724 10.7976 2.43724 13.7076 2.74724C13.4876 3.40724 13.3776 4.12724 13.3776 4.90724C13.3776 5.62724 13.5376 6.43724 13.8676 7.34724C14.1976 8.24724 14.5776 8.96724 15.0776 9.49724L12.7676 11.7972Z" fill="black"/>
</svg>
