<svg width="25" height="25" viewBox="0 0 25 25" fill="none" xmlns="http://www.w3.org/2000/svg">
<path d="M4.57764 3.68726C3.46764 3.68726 2.57764 4.57726 2.57764 5.68726V15.6873C2.57764 16.2177 2.78835 16.7264 3.16342 17.1015C3.5385 17.4765 4.0472 17.6873 4.57764 17.6873H12.5776V22.6873L15.5776 19.6873L18.5776 22.6873V17.6873H20.5776C21.1081 17.6873 21.6168 17.4765 21.9918 17.1015C22.3669 16.7264 22.5776 16.2177 22.5776 15.6873V8.68726V6.68726V5.68726C22.5776 5.15682 22.3669 4.64811 21.9918 4.27304C21.6168 3.89797 21.1081 3.68726 20.5776 3.68726H16.5776H4.57764ZM12.5776 5.68726L15.5776 7.68726L18.5776 5.68726V9.18726L21.5776 10.6873L18.5776 12.1873V15.6873L15.5776 13.6873L12.5776 15.6873V12.1873L9.57764 10.6873L12.5776 9.18726V5.68726ZM4.57764 5.68726H9.57764V7.68726H4.57764V5.68726ZM4.57764 9.68726H7.57764V11.6873H4.57764V9.68726ZM4.57764 13.6873H9.57764V15.6873H4.57764V13.6873Z" fill="black"/>
</svg>
