<svg width="20" height="20" viewBox="0 0 20 20" fill="none" xmlns="http://www.w3.org/2000/svg">
    <path d="M9.99999 14.498C12.4853 14.498 14.5 12.4833 14.5 9.99804C14.5 7.51276 12.4853 5.49805 9.99999 5.49805C7.51472 5.49805 5.5 7.51276 5.5 9.99804C5.5 12.4833 7.51472 14.498 9.99999 14.498Z" fill="white"></path>
    <path d="M9.99992 5.50001H17.7929C17.0032 4.13178 15.8672 2.99558 14.4991 2.20564C13.131 1.41571 11.5791 0.99989 9.99933 1C8.41957 1.00011 6.86768 1.41614 5.49971 2.20627C4.13174 2.99639 2.99591 4.13276 2.20642 5.5011L6.10289 12.25L6.10638 12.2491C5.71 11.5656 5.50083 10.7896 5.49994 9.9995C5.49905 9.20937 5.70648 8.43296 6.10132 7.74855C6.49616 7.06413 7.06445 6.49591 7.7489 6.10114C8.43336 5.70638 9.20979 5.49904 9.99992 5.50001Z" fill="#D93025"></path>
    <path d="M9.99987 13.5625C11.9674 13.5625 13.5624 11.9675 13.5624 10C13.5624 8.03248 11.9674 6.4375 9.99987 6.4375C8.03236 6.4375 6.43738 8.03248 6.43738 10C6.43738 11.9675 8.03236 13.5625 9.99987 13.5625Z" fill="#1A73E8"></path>
    <path d="M13.8967 12.2509L10.0003 18.9998C11.58 19 13.132 18.5843 14.5001 17.7945C15.8683 17.0046 17.0043 15.8685 17.7941 14.5004C18.5839 13.1322 18.9995 11.5802 18.9992 10.0005C18.999 8.4207 18.5828 6.86886 17.7925 5.50098H9.99959L9.99866 5.50446C10.7888 5.50294 11.5654 5.70975 12.2501 6.10404C12.9348 6.49834 13.5035 7.06618 13.8988 7.75033C14.2941 8.43448 14.5021 9.21075 14.5017 10.0009C14.5013 10.791 14.2927 11.5671 13.8967 12.2509Z" fill="#FCC934"></path>
    <path d="M6.1032 12.2511L2.20673 5.5022C1.41665 6.8702 1.00067 8.4221 1.00061 10.0019C1.00055 11.5816 1.41642 13.1335 2.20639 14.5016C2.99637 15.8697 4.13261 17.0056 5.50086 17.7953C6.86911 18.5849 8.42115 19.0004 10.0009 18.9999L13.8974 12.251L13.8949 12.2485C13.5011 12.9335 12.9337 13.5026 12.2499 13.8985C11.566 14.2943 10.7899 14.5029 9.99979 14.5031C9.20965 14.5034 8.43341 14.2954 7.7493 13.9C7.0652 13.5046 6.49742 12.9359 6.1032 12.2511Z" fill="#1E8E3E"></path>
</svg>