<svg width="16" height="21" viewBox="0 0 16 21" fill="none" xmlns="http://www.w3.org/2000/svg">
<path d="M8 14.5027C7.86667 14.5027 7.74167 14.4763 7.625 14.4237C7.50833 14.3719 7.4 14.2834 7.3 14.1581L3.7 9.64756C3.51667 9.41785 3.425 9.1255 3.425 8.77051C3.425 8.41551 3.51667 8.12316 3.7 7.89346C3.88333 7.66375 4.12067 7.54347 4.412 7.53261C4.704 7.52259 4.94167 7.63243 5.125 7.86213L7 10.2114V1.25293C7 0.897933 7.096 0.600154 7.288 0.359591C7.47933 0.119864 7.71667 0 8 0C8.28333 0 8.521 0.119864 8.713 0.359591C8.90433 0.600154 9 0.897933 9 1.25293V10.2114L10.875 7.86213C11.0583 7.63243 11.296 7.52259 11.588 7.53261C11.8793 7.54347 12.1167 7.66375 12.3 7.89346C12.4833 8.12316 12.575 8.41551 12.575 8.77051C12.575 9.1255 12.4833 9.41785 12.3 9.64756L8.7 14.1581C8.6 14.2834 8.49167 14.3719 8.375 14.4237C8.25833 14.4763 8.13333 14.5027 8 14.5027ZM2 20.0469C1.45 20.0469 0.979333 19.8017 0.588 19.3114C0.196 18.8203 0 18.2301 0 17.541V15.0352C0 14.6802 0.0956668 14.3824 0.287 14.1418C0.479 13.9021 0.716667 13.7822 1 13.7822C1.28333 13.7822 1.521 13.9021 1.713 14.1418C1.90433 14.3824 2 14.6802 2 15.0352V17.541H14V15.0352C14 14.6802 14.096 14.3824 14.288 14.1418C14.4793 13.9021 14.7167 13.7822 15 13.7822C15.2833 13.7822 15.5207 13.9021 15.712 14.1418C15.904 14.3824 16 14.6802 16 15.0352V17.541C16 18.2301 15.8043 18.8203 15.413 19.3114C15.021 19.8017 14.55 20.0469 14 20.0469H2Z" fill="white"/>
</svg>
