<svg width="24" height="24" viewBox="0 0 24 24" fill="none" xmlns="http://www.w3.org/2000/svg">
<path d="M7.5 22C6.53333 22 5.70833 21.6583 5.025 20.975C4.34167 20.2917 4 19.4667 4 18.5V5.5C4 4.53333 4.34167 3.70833 5.025 3.025C5.70833 2.34167 6.53333 2 7.5 2H18C18.55 2 19.0208 2.19583 19.4125 2.5875C19.8042 2.97917 20 3.45 20 4V16.025C20 16.2917 19.9333 16.5333 19.8 16.75C19.6667 16.9667 19.4833 17.1333 19.25 17.25C19.0167 17.3667 18.8333 17.5375 18.7 17.7625C18.5667 17.9875 18.5 18.2333 18.5 18.5C18.5 18.7667 18.5667 19.0167 18.7 19.25C18.8333 19.4833 19.0167 19.65 19.25 19.75C19.4667 19.8333 19.6458 19.9583 19.7875 20.125C19.9292 20.2917 20 20.4917 20 20.725V20.975C20 21.2583 19.9042 21.5 19.7125 21.7C19.5208 21.9 19.2833 22 19 22H7.5ZM10.575 11.225H13.4L13.9 12.625C13.9333 12.7417 13.9958 12.8333 14.0875 12.9C14.1792 12.9667 14.2917 13 14.425 13C14.625 13 14.7833 12.9167 14.9 12.75C15.0167 12.5833 15.0333 12.4083 14.95 12.225L12.75 6.375C12.7167 6.25833 12.65 6.16667 12.55 6.1C12.45 6.03333 12.3333 6 12.2 6H11.75C11.6167 6 11.5 6.03333 11.4 6.1C11.3 6.16667 11.2333 6.25833 11.2 6.375L9 12.25C8.91667 12.4333 8.9375 12.6042 9.0625 12.7625C9.1875 12.9208 9.35 13 9.55 13C9.68333 13 9.79583 12.9667 9.8875 12.9C9.97917 12.8333 10.0417 12.7417 10.075 12.625L10.575 11.225ZM10.925 10.2L11.95 7.3H12.025L13.025 10.2H10.925ZM7.5 20H16.825C16.725 19.7667 16.6458 19.5292 16.5875 19.2875C16.5292 19.0458 16.5 18.7833 16.5 18.5C16.5 18.2333 16.525 17.975 16.575 17.725C16.625 17.475 16.7083 17.2333 16.825 17H7.5C7.06667 17 6.70833 17.1458 6.425 17.4375C6.14167 17.7292 6 18.0833 6 18.5C6 18.9333 6.14167 19.2917 6.425 19.575C6.70833 19.8583 7.06667 20 7.5 20Z" fill="black"/>
</svg>
