<svg width="17" height="20" viewBox="0 0 17 20" fill="none" xmlns="http://www.w3.org/2000/svg">
<path d="M13.2222 0H1.88889C0.840556 0 0 1 0 2.22222V17.7778C0 19 0.840556 20 1.88889 20H15.1111C16.15 20 17 19 17 17.7778V4.44444L13.2222 0ZM8.5 17.7778C6.93222 17.7778 5.66667 16.2889 5.66667 14.4444C5.66667 12.6 6.93222 11.1111 8.5 11.1111C10.0678 11.1111 11.3333 12.6 11.3333 14.4444C11.3333 16.2889 10.0678 17.7778 8.5 17.7778ZM11.3333 6.66667H1.88889V2.22222H11.3333V6.66667Z" fill="white"/>
</svg>
