<svg width="16" height="21" viewBox="0 0 16 21" fill="none" xmlns="http://www.w3.org/2000/svg">
<path d="M5 10.0234H11C11.2833 10.0234 11.521 9.92721 11.713 9.73476C11.9043 9.54298 12 9.30509 12 9.02109C12 8.7371 11.9043 8.49887 11.713 8.30642C11.521 8.11464 11.2833 8.01875 11 8.01875H5C4.71667 8.01875 4.47933 8.11464 4.288 8.30642C4.096 8.49887 4 8.7371 4 9.02109C4 9.30509 4.096 9.54298 4.288 9.73476C4.47933 9.92721 4.71667 10.0234 5 10.0234ZM5 6.01406H11C11.2833 6.01406 11.521 5.91817 11.713 5.72639C11.9043 5.53394 12 5.29572 12 5.01172C12 4.72772 11.9043 4.4895 11.713 4.29705C11.521 4.10527 11.2833 4.00938 11 4.00938H5C4.71667 4.00938 4.47933 4.10527 4.288 4.29705C4.096 4.4895 4 4.72772 4 5.01172C4 5.29572 4.096 5.53394 4.288 5.72639C4.47933 5.91817 4.71667 6.01406 5 6.01406ZM15.95 18.5183L11.9 13.2309C11.6167 12.8467 11.2667 12.55 10.85 12.3409C10.4333 12.1324 9.98333 12.0281 9.5 12.0281H0V2.00469C0 1.4534 0.196 0.981294 0.588 0.588376C0.979333 0.196125 1.45 0 2 0H14C14.55 0 15.021 0.196125 15.413 0.588376C15.8043 0.981294 16 1.4534 16 2.00469V18.0422C16 18.1257 15.996 18.2052 15.988 18.2807C15.9793 18.3556 15.9667 18.4348 15.95 18.5183ZM2 20.0469C1.45 20.0469 0.979333 19.8508 0.588 19.4585C0.196 19.0656 0 18.5935 0 18.0422V14.0328H9.5C9.66667 14.0328 9.821 14.0706 9.963 14.1461C10.1043 14.2209 10.225 14.3252 10.325 14.4588L14.525 19.9717C14.4417 20.0051 14.3543 20.0262 14.263 20.0348C14.171 20.0429 14.0833 20.0469 14 20.0469H2Z" fill="white"/>
</svg>
