<svg width="25" height="25" viewBox="0 0 25 25" fill="none" xmlns="http://www.w3.org/2000/svg">
<path d="M13.4476 15.7573L10.9076 13.2473L10.9376 13.2173C12.6776 11.2773 13.9176 9.04726 14.6476 6.68726H17.5776V4.68726H10.5776V2.68726H8.57764V4.68726H1.57764V6.68726H12.7476C12.0776 8.60726 11.0176 10.4373 9.57764 12.0373C8.64764 11.0073 7.87764 9.87726 7.26764 8.68726H5.26764C5.99764 10.3173 6.99764 11.8573 8.24764 13.2473L3.15764 18.2673L4.57764 19.6873L9.57764 14.6873L12.6876 17.7973L13.4476 15.7573ZM19.0776 10.6873H17.0776L12.5776 22.6873H14.5776L15.6976 19.6873H20.4476L21.5776 22.6873H23.5776L19.0776 10.6873ZM16.4576 17.6873L18.0776 13.3573L19.6976 17.6873H16.4576Z" fill="black"/>
</svg>
